<svg xmlns="http://www.w3.org/2000/svg" width="1180" height="760" viewBox="0 0 1180 760">
<rect width="100%" height="100%" fill="white"/>
<style>text{font-family:Arial,Helvetica,sans-serif;fill:#202124} .small{font-size:13px} .axis{font-size:14px} .title{font-size:24px;font-weight:700}</style>
<text x="92" y="34" class="title">ScalarCountSmoke add1List Runtimes by Input Size (AVX2)</text>
<rect x="92" y="58" width="738" height="580" fill="#fbfbfd" stroke="#c7c7cc"/>
<line x1="92" y1="638.0" x2="830" y2="638.0" stroke="#b8b8c0" stroke-width="1"/>
<text x="80" y="642.0" text-anchor="end" class="small">0.00 ms</text>
<line x1="92" y1="611.3" x2="830" y2="611.3" stroke="#b8b8c0" stroke-width="1"/>
<text x="80" y="615.3" text-anchor="end" class="small">1.00 ms</text>
<line x1="92" y1="584.5" x2="830" y2="584.5" stroke="#b8b8c0" stroke-width="1"/>
<text x="80" y="588.5" text-anchor="end" class="small">2.00 ms</text>
<line x1="92" y1="557.8" x2="830" y2="557.8" stroke="#b8b8c0" stroke-width="1"/>
<text x="80" y="561.8" text-anchor="end" class="small">3.00 ms</text>
<line x1="92" y1="531.1" x2="830" y2="531.1" stroke="#b8b8c0" stroke-width="1"/>
<text x="80" y="535.1" text-anchor="end" class="small">4.00 ms</text>
<line x1="92" y1="504.4" x2="830" y2="504.4" stroke="#b8b8c0" stroke-width="1"/>
<text x="80" y="508.4" text-anchor="end" class="small">5.00 ms</text>
<line x1="92" y1="477.6" x2="830" y2="477.6" stroke="#b8b8c0" stroke-width="1"/>
<text x="80" y="481.6" text-anchor="end" class="small">6.00 ms</text>
<line x1="92" y1="450.9" x2="830" y2="450.9" stroke="#b8b8c0" stroke-width="1"/>
<text x="80" y="454.9" text-anchor="end" class="small">7.00 ms</text>
<line x1="92" y1="424.2" x2="830" y2="424.2" stroke="#b8b8c0" stroke-width="1"/>
<text x="80" y="428.2" text-anchor="end" class="small">8.00 ms</text>
<line x1="92" y1="397.4" x2="830" y2="397.4" stroke="#b8b8c0" stroke-width="1"/>
<text x="80" y="401.4" text-anchor="end" class="small">9.00 ms</text>
<line x1="92" y1="370.7" x2="830" y2="370.7" stroke="#b8b8c0" stroke-width="1"/>
<text x="80" y="374.7" text-anchor="end" class="small">10.00 ms</text>
<line x1="92" y1="344.0" x2="830" y2="344.0" stroke="#b8b8c0" stroke-width="1"/>
<text x="80" y="348.0" text-anchor="end" class="small">11.00 ms</text>
<line x1="92" y1="317.3" x2="830" y2="317.3" stroke="#b8b8c0" stroke-width="1"/>
<text x="80" y="321.3" text-anchor="end" class="small">12.00 ms</text>
<line x1="92" y1="290.5" x2="830" y2="290.5" stroke="#b8b8c0" stroke-width="1"/>
<text x="80" y="294.5" text-anchor="end" class="small">13.00 ms</text>
<line x1="92" y1="263.8" x2="830" y2="263.8" stroke="#b8b8c0" stroke-width="1"/>
<text x="80" y="267.8" text-anchor="end" class="small">14.00 ms</text>
<line x1="92" y1="237.1" x2="830" y2="237.1" stroke="#b8b8c0" stroke-width="1"/>
<text x="80" y="241.1" text-anchor="end" class="small">15.00 ms</text>
<line x1="92" y1="210.4" x2="830" y2="210.4" stroke="#b8b8c0" stroke-width="1"/>
<text x="80" y="214.4" text-anchor="end" class="small">16.00 ms</text>
<line x1="92" y1="183.6" x2="830" y2="183.6" stroke="#b8b8c0" stroke-width="1"/>
<text x="80" y="187.6" text-anchor="end" class="small">17.00 ms</text>
<line x1="92" y1="156.9" x2="830" y2="156.9" stroke="#b8b8c0" stroke-width="1"/>
<text x="80" y="160.9" text-anchor="end" class="small">18.00 ms</text>
<line x1="92" y1="130.2" x2="830" y2="130.2" stroke="#b8b8c0" stroke-width="1"/>
<text x="80" y="134.2" text-anchor="end" class="small">19.00 ms</text>
<line x1="92" y1="103.4" x2="830" y2="103.4" stroke="#b8b8c0" stroke-width="1"/>
<text x="80" y="107.4" text-anchor="end" class="small">20.00 ms</text>
<line x1="92" y1="76.7" x2="830" y2="76.7" stroke="#b8b8c0" stroke-width="1"/>
<text x="80" y="80.7" text-anchor="end" class="small">21.00 ms</text>
<line x1="92.0" y1="58" x2="92.0" y2="638" stroke="#ececf1" stroke-width="1"/>
<text x="92.0" y="702.0" text-anchor="end" class="small" transform="rotate(-45 92.0 702.0)">1</text>
<line x1="235.3" y1="58" x2="235.3" y2="638" stroke="#ececf1" stroke-width="1"/>
<text x="235.3" y="702.0" text-anchor="end" class="small" transform="rotate(-45 235.3 702.0)">1M</text>
<line x1="378.6" y1="58" x2="378.6" y2="638" stroke="#ececf1" stroke-width="1"/>
<text x="378.6" y="702.0" text-anchor="end" class="small" transform="rotate(-45 378.6 702.0)">2M</text>
<line x1="521.9" y1="58" x2="521.9" y2="638" stroke="#ececf1" stroke-width="1"/>
<text x="521.9" y="702.0" text-anchor="end" class="small" transform="rotate(-45 521.9 702.0)">3M</text>
<line x1="665.2" y1="58" x2="665.2" y2="638" stroke="#ececf1" stroke-width="1"/>
<text x="665.2" y="702.0" text-anchor="end" class="small" transform="rotate(-45 665.2 702.0)">4M</text>
<line x1="808.5" y1="58" x2="808.5" y2="638" stroke="#ececf1" stroke-width="1"/>
<text x="808.5" y="702.0" text-anchor="end" class="small" transform="rotate(-45 808.5 702.0)">5M</text>
<text x="461.0" y="738" text-anchor="middle" class="axis">Input size (linear scale)</text>
<text x="26" y="348.0" text-anchor="middle" class="axis" transform="rotate(-90 26 348.0)">Median runtime (ms)</text>
<polyline points="92.0,638.0 106.3,627.2 120.7,615.5 135.0,603.9 149.3,592.2 163.7,580.9 178.0,569.5 192.3,558.3 206.6,547.0 221.0,536.5 235.3,524.8 249.6,514.7 264.0,502.8 278.3,492.2 292.6,480.6 307.0,468.1 321.3,458.9 335.6,445.9 349.9,435.8 364.3,422.1 378.6,411.0 392.9,400.1 407.3,386.9 421.6,380.7 435.9,365.9 450.3,357.1 464.6,343.0 478.9,332.2 493.2,320.8 507.6,306.7 521.9,300.1 536.2,284.6 550.6,265.1 564.9,240.8 579.2,228.7 593.6,220.4 607.9,205.1 622.2,197.6 636.5,180.7 650.9,173.2 665.2,157.8 679.5,146.2 693.9,135.0 708.2,121.7 722.5,116.9 736.9,97.1 751.2,91.2 765.5,88.8 779.8,85.4 794.2,76.3 808.5,64.5" fill="none" stroke="#7f7f7f" stroke-width="3" stroke-linejoin="round" stroke-linecap="round"/>
<circle cx="92.0" cy="638.0" r="4" fill="#7f7f7f" stroke="white" stroke-width="1.5"/>
<circle cx="106.3" cy="627.2" r="4" fill="#7f7f7f" stroke="white" stroke-width="1.5"/>
<circle cx="120.7" cy="615.5" r="4" fill="#7f7f7f" stroke="white" stroke-width="1.5"/>
<circle cx="135.0" cy="603.9" r="4" fill="#7f7f7f" stroke="white" stroke-width="1.5"/>
<circle cx="149.3" cy="592.2" r="4" fill="#7f7f7f" stroke="white" stroke-width="1.5"/>
<circle cx="163.7" cy="580.9" r="4" fill="#7f7f7f" stroke="white" stroke-width="1.5"/>
<circle cx="178.0" cy="569.5" r="4" fill="#7f7f7f" stroke="white" stroke-width="1.5"/>
<circle cx="192.3" cy="558.3" r="4" fill="#7f7f7f" stroke="white" stroke-width="1.5"/>
<circle cx="206.6" cy="547.0" r="4" fill="#7f7f7f" stroke="white" stroke-width="1.5"/>
<circle cx="221.0" cy="536.5" r="4" fill="#7f7f7f" stroke="white" stroke-width="1.5"/>
<circle cx="235.3" cy="524.8" r="4" fill="#7f7f7f" stroke="white" stroke-width="1.5"/>
<circle cx="249.6" cy="514.7" r="4" fill="#7f7f7f" stroke="white" stroke-width="1.5"/>
<circle cx="264.0" cy="502.8" r="4" fill="#7f7f7f" stroke="white" stroke-width="1.5"/>
<circle cx="278.3" cy="492.2" r="4" fill="#7f7f7f" stroke="white" stroke-width="1.5"/>
<circle cx="292.6" cy="480.6" r="4" fill="#7f7f7f" stroke="white" stroke-width="1.5"/>
<circle cx="307.0" cy="468.1" r="4" fill="#7f7f7f" stroke="white" stroke-width="1.5"/>
<circle cx="321.3" cy="458.9" r="4" fill="#7f7f7f" stroke="white" stroke-width="1.5"/>
<circle cx="335.6" cy="445.9" r="4" fill="#7f7f7f" stroke="white" stroke-width="1.5"/>
<circle cx="349.9" cy="435.8" r="4" fill="#7f7f7f" stroke="white" stroke-width="1.5"/>
<circle cx="364.3" cy="422.1" r="4" fill="#7f7f7f" stroke="white" stroke-width="1.5"/>
<circle cx="378.6" cy="411.0" r="4" fill="#7f7f7f" stroke="white" stroke-width="1.5"/>
<circle cx="392.9" cy="400.1" r="4" fill="#7f7f7f" stroke="white" stroke-width="1.5"/>
<circle cx="407.3" cy="386.9" r="4" fill="#7f7f7f" stroke="white" stroke-width="1.5"/>
<circle cx="421.6" cy="380.7" r="4" fill="#7f7f7f" stroke="white" stroke-width="1.5"/>
<circle cx="435.9" cy="365.9" r="4" fill="#7f7f7f" stroke="white" stroke-width="1.5"/>
<circle cx="450.3" cy="357.1" r="4" fill="#7f7f7f" stroke="white" stroke-width="1.5"/>
<circle cx="464.6" cy="343.0" r="4" fill="#7f7f7f" stroke="white" stroke-width="1.5"/>
<circle cx="478.9" cy="332.2" r="4" fill="#7f7f7f" stroke="white" stroke-width="1.5"/>
<circle cx="493.2" cy="320.8" r="4" fill="#7f7f7f" stroke="white" stroke-width="1.5"/>
<circle cx="507.6" cy="306.7" r="4" fill="#7f7f7f" stroke="white" stroke-width="1.5"/>
<circle cx="521.9" cy="300.1" r="4" fill="#7f7f7f" stroke="white" stroke-width="1.5"/>
<circle cx="536.2" cy="284.6" r="4" fill="#7f7f7f" stroke="white" stroke-width="1.5"/>
<circle cx="550.6" cy="265.1" r="4" fill="#7f7f7f" stroke="white" stroke-width="1.5"/>
<circle cx="564.9" cy="240.8" r="4" fill="#7f7f7f" stroke="white" stroke-width="1.5"/>
<circle cx="579.2" cy="228.7" r="4" fill="#7f7f7f" stroke="white" stroke-width="1.5"/>
<circle cx="593.6" cy="220.4" r="4" fill="#7f7f7f" stroke="white" stroke-width="1.5"/>
<circle cx="607.9" cy="205.1" r="4" fill="#7f7f7f" stroke="white" stroke-width="1.5"/>
<circle cx="622.2" cy="197.6" r="4" fill="#7f7f7f" stroke="white" stroke-width="1.5"/>
<circle cx="636.5" cy="180.7" r="4" fill="#7f7f7f" stroke="white" stroke-width="1.5"/>
<circle cx="650.9" cy="173.2" r="4" fill="#7f7f7f" stroke="white" stroke-width="1.5"/>
<circle cx="665.2" cy="157.8" r="4" fill="#7f7f7f" stroke="white" stroke-width="1.5"/>
<circle cx="679.5" cy="146.2" r="4" fill="#7f7f7f" stroke="white" stroke-width="1.5"/>
<circle cx="693.9" cy="135.0" r="4" fill="#7f7f7f" stroke="white" stroke-width="1.5"/>
<circle cx="708.2" cy="121.7" r="4" fill="#7f7f7f" stroke="white" stroke-width="1.5"/>
<circle cx="722.5" cy="116.9" r="4" fill="#7f7f7f" stroke="white" stroke-width="1.5"/>
<circle cx="736.9" cy="97.1" r="4" fill="#7f7f7f" stroke="white" stroke-width="1.5"/>
<circle cx="751.2" cy="91.2" r="4" fill="#7f7f7f" stroke="white" stroke-width="1.5"/>
<circle cx="765.5" cy="88.8" r="4" fill="#7f7f7f" stroke="white" stroke-width="1.5"/>
<circle cx="779.8" cy="85.4" r="4" fill="#7f7f7f" stroke="white" stroke-width="1.5"/>
<circle cx="794.2" cy="76.3" r="4" fill="#7f7f7f" stroke="white" stroke-width="1.5"/>
<circle cx="808.5" cy="64.5" r="4" fill="#7f7f7f" stroke="white" stroke-width="1.5"/>
<polyline points="92.0,637.9 106.3,630.0 120.7,620.2 135.0,610.7 149.3,601.7 163.7,592.4 178.0,583.3 192.3,574.3 206.6,567.7 221.0,557.1 235.3,546.4 249.6,537.8 264.0,529.2 278.3,519.8 292.6,511.2 307.0,507.1 321.3,494.7 335.6,483.5 349.9,474.6 364.3,465.4 378.6,455.5 392.9,448.0 407.3,446.4 421.6,431.6 435.9,419.1 450.3,411.2 464.6,401.4 478.9,392.2 493.2,384.5 507.6,384.9 521.9,369.2 536.2,355.5 550.6,346.9 564.9,337.5 579.2,329.0 593.6,321.5 607.9,322.9 622.2,305.4 636.5,290.7 650.9,283.5 665.2,263.1 679.5,248.0 693.9,229.0 708.2,228.4 722.5,207.3 736.9,191.5 751.2,183.0 765.5,179.4 779.8,185.0 794.2,176.0 808.5,182.8" fill="none" stroke="#1f77b4" stroke-width="3" stroke-linejoin="round" stroke-linecap="round"/>
<circle cx="92.0" cy="637.9" r="4" fill="#1f77b4" stroke="white" stroke-width="1.5"/>
<circle cx="106.3" cy="630.0" r="4" fill="#1f77b4" stroke="white" stroke-width="1.5"/>
<circle cx="120.7" cy="620.2" r="4" fill="#1f77b4" stroke="white" stroke-width="1.5"/>
<circle cx="135.0" cy="610.7" r="4" fill="#1f77b4" stroke="white" stroke-width="1.5"/>
<circle cx="149.3" cy="601.7" r="4" fill="#1f77b4" stroke="white" stroke-width="1.5"/>
<circle cx="163.7" cy="592.4" r="4" fill="#1f77b4" stroke="white" stroke-width="1.5"/>
<circle cx="178.0" cy="583.3" r="4" fill="#1f77b4" stroke="white" stroke-width="1.5"/>
<circle cx="192.3" cy="574.3" r="4" fill="#1f77b4" stroke="white" stroke-width="1.5"/>
<circle cx="206.6" cy="567.7" r="4" fill="#1f77b4" stroke="white" stroke-width="1.5"/>
<circle cx="221.0" cy="557.1" r="4" fill="#1f77b4" stroke="white" stroke-width="1.5"/>
<circle cx="235.3" cy="546.4" r="4" fill="#1f77b4" stroke="white" stroke-width="1.5"/>
<circle cx="249.6" cy="537.8" r="4" fill="#1f77b4" stroke="white" stroke-width="1.5"/>
<circle cx="264.0" cy="529.2" r="4" fill="#1f77b4" stroke="white" stroke-width="1.5"/>
<circle cx="278.3" cy="519.8" r="4" fill="#1f77b4" stroke="white" stroke-width="1.5"/>
<circle cx="292.6" cy="511.2" r="4" fill="#1f77b4" stroke="white" stroke-width="1.5"/>
<circle cx="307.0" cy="507.1" r="4" fill="#1f77b4" stroke="white" stroke-width="1.5"/>
<circle cx="321.3" cy="494.7" r="4" fill="#1f77b4" stroke="white" stroke-width="1.5"/>
<circle cx="335.6" cy="483.5" r="4" fill="#1f77b4" stroke="white" stroke-width="1.5"/>
<circle cx="349.9" cy="474.6" r="4" fill="#1f77b4" stroke="white" stroke-width="1.5"/>
<circle cx="364.3" cy="465.4" r="4" fill="#1f77b4" stroke="white" stroke-width="1.5"/>
<circle cx="378.6" cy="455.5" r="4" fill="#1f77b4" stroke="white" stroke-width="1.5"/>
<circle cx="392.9" cy="448.0" r="4" fill="#1f77b4" stroke="white" stroke-width="1.5"/>
<circle cx="407.3" cy="446.4" r="4" fill="#1f77b4" stroke="white" stroke-width="1.5"/>
<circle cx="421.6" cy="431.6" r="4" fill="#1f77b4" stroke="white" stroke-width="1.5"/>
<circle cx="435.9" cy="419.1" r="4" fill="#1f77b4" stroke="white" stroke-width="1.5"/>
<circle cx="450.3" cy="411.2" r="4" fill="#1f77b4" stroke="white" stroke-width="1.5"/>
<circle cx="464.6" cy="401.4" r="4" fill="#1f77b4" stroke="white" stroke-width="1.5"/>
<circle cx="478.9" cy="392.2" r="4" fill="#1f77b4" stroke="white" stroke-width="1.5"/>
<circle cx="493.2" cy="384.5" r="4" fill="#1f77b4" stroke="white" stroke-width="1.5"/>
<circle cx="507.6" cy="384.9" r="4" fill="#1f77b4" stroke="white" stroke-width="1.5"/>
<circle cx="521.9" cy="369.2" r="4" fill="#1f77b4" stroke="white" stroke-width="1.5"/>
<circle cx="536.2" cy="355.5" r="4" fill="#1f77b4" stroke="white" stroke-width="1.5"/>
<circle cx="550.6" cy="346.9" r="4" fill="#1f77b4" stroke="white" stroke-width="1.5"/>
<circle cx="564.9" cy="337.5" r="4" fill="#1f77b4" stroke="white" stroke-width="1.5"/>
<circle cx="579.2" cy="329.0" r="4" fill="#1f77b4" stroke="white" stroke-width="1.5"/>
<circle cx="593.6" cy="321.5" r="4" fill="#1f77b4" stroke="white" stroke-width="1.5"/>
<circle cx="607.9" cy="322.9" r="4" fill="#1f77b4" stroke="white" stroke-width="1.5"/>
<circle cx="622.2" cy="305.4" r="4" fill="#1f77b4" stroke="white" stroke-width="1.5"/>
<circle cx="636.5" cy="290.7" r="4" fill="#1f77b4" stroke="white" stroke-width="1.5"/>
<circle cx="650.9" cy="283.5" r="4" fill="#1f77b4" stroke="white" stroke-width="1.5"/>
<circle cx="665.2" cy="263.1" r="4" fill="#1f77b4" stroke="white" stroke-width="1.5"/>
<circle cx="679.5" cy="248.0" r="4" fill="#1f77b4" stroke="white" stroke-width="1.5"/>
<circle cx="693.9" cy="229.0" r="4" fill="#1f77b4" stroke="white" stroke-width="1.5"/>
<circle cx="708.2" cy="228.4" r="4" fill="#1f77b4" stroke="white" stroke-width="1.5"/>
<circle cx="722.5" cy="207.3" r="4" fill="#1f77b4" stroke="white" stroke-width="1.5"/>
<circle cx="736.9" cy="191.5" r="4" fill="#1f77b4" stroke="white" stroke-width="1.5"/>
<circle cx="751.2" cy="183.0" r="4" fill="#1f77b4" stroke="white" stroke-width="1.5"/>
<circle cx="765.5" cy="179.4" r="4" fill="#1f77b4" stroke="white" stroke-width="1.5"/>
<circle cx="779.8" cy="185.0" r="4" fill="#1f77b4" stroke="white" stroke-width="1.5"/>
<circle cx="794.2" cy="176.0" r="4" fill="#1f77b4" stroke="white" stroke-width="1.5"/>
<circle cx="808.5" cy="182.8" r="4" fill="#1f77b4" stroke="white" stroke-width="1.5"/>
<polyline points="92.0,638.0 106.3,633.4 120.7,628.4 135.0,622.8 149.3,617.5 163.7,612.3 178.0,607.5 192.3,602.1 206.6,596.6 221.0,591.6 235.3,586.5 249.6,581.4 264.0,576.4 278.3,571.4 292.6,566.1 307.0,560.7 321.3,556.3 335.6,551.0 349.9,545.9 364.3,540.4 378.6,535.4 392.9,531.1 407.3,526.0 421.6,520.5 435.9,515.0 450.3,510.7 464.6,504.6 478.9,499.8 493.2,495.6 507.6,489.0 521.9,485.4 536.2,479.0 550.6,473.8 564.9,468.6 579.2,464.5 593.6,459.2 607.9,452.9 622.2,448.2 636.5,434.2 650.9,421.0 665.2,414.1 679.5,408.9 693.9,403.2 708.2,398.8 722.5,392.9 736.9,387.3 751.2,381.7 765.5,388.1 779.8,386.4 794.2,377.8 808.5,372.1" fill="none" stroke="#2ca02c" stroke-width="3" stroke-linejoin="round" stroke-linecap="round"/>
<circle cx="92.0" cy="638.0" r="4" fill="#2ca02c" stroke="white" stroke-width="1.5"/>
<circle cx="106.3" cy="633.4" r="4" fill="#2ca02c" stroke="white" stroke-width="1.5"/>
<circle cx="120.7" cy="628.4" r="4" fill="#2ca02c" stroke="white" stroke-width="1.5"/>
<circle cx="135.0" cy="622.8" r="4" fill="#2ca02c" stroke="white" stroke-width="1.5"/>
<circle cx="149.3" cy="617.5" r="4" fill="#2ca02c" stroke="white" stroke-width="1.5"/>
<circle cx="163.7" cy="612.3" r="4" fill="#2ca02c" stroke="white" stroke-width="1.5"/>
<circle cx="178.0" cy="607.5" r="4" fill="#2ca02c" stroke="white" stroke-width="1.5"/>
<circle cx="192.3" cy="602.1" r="4" fill="#2ca02c" stroke="white" stroke-width="1.5"/>
<circle cx="206.6" cy="596.6" r="4" fill="#2ca02c" stroke="white" stroke-width="1.5"/>
<circle cx="221.0" cy="591.6" r="4" fill="#2ca02c" stroke="white" stroke-width="1.5"/>
<circle cx="235.3" cy="586.5" r="4" fill="#2ca02c" stroke="white" stroke-width="1.5"/>
<circle cx="249.6" cy="581.4" r="4" fill="#2ca02c" stroke="white" stroke-width="1.5"/>
<circle cx="264.0" cy="576.4" r="4" fill="#2ca02c" stroke="white" stroke-width="1.5"/>
<circle cx="278.3" cy="571.4" r="4" fill="#2ca02c" stroke="white" stroke-width="1.5"/>
<circle cx="292.6" cy="566.1" r="4" fill="#2ca02c" stroke="white" stroke-width="1.5"/>
<circle cx="307.0" cy="560.7" r="4" fill="#2ca02c" stroke="white" stroke-width="1.5"/>
<circle cx="321.3" cy="556.3" r="4" fill="#2ca02c" stroke="white" stroke-width="1.5"/>
<circle cx="335.6" cy="551.0" r="4" fill="#2ca02c" stroke="white" stroke-width="1.5"/>
<circle cx="349.9" cy="545.9" r="4" fill="#2ca02c" stroke="white" stroke-width="1.5"/>
<circle cx="364.3" cy="540.4" r="4" fill="#2ca02c" stroke="white" stroke-width="1.5"/>
<circle cx="378.6" cy="535.4" r="4" fill="#2ca02c" stroke="white" stroke-width="1.5"/>
<circle cx="392.9" cy="531.1" r="4" fill="#2ca02c" stroke="white" stroke-width="1.5"/>
<circle cx="407.3" cy="526.0" r="4" fill="#2ca02c" stroke="white" stroke-width="1.5"/>
<circle cx="421.6" cy="520.5" r="4" fill="#2ca02c" stroke="white" stroke-width="1.5"/>
<circle cx="435.9" cy="515.0" r="4" fill="#2ca02c" stroke="white" stroke-width="1.5"/>
<circle cx="450.3" cy="510.7" r="4" fill="#2ca02c" stroke="white" stroke-width="1.5"/>
<circle cx="464.6" cy="504.6" r="4" fill="#2ca02c" stroke="white" stroke-width="1.5"/>
<circle cx="478.9" cy="499.8" r="4" fill="#2ca02c" stroke="white" stroke-width="1.5"/>
<circle cx="493.2" cy="495.6" r="4" fill="#2ca02c" stroke="white" stroke-width="1.5"/>
<circle cx="507.6" cy="489.0" r="4" fill="#2ca02c" stroke="white" stroke-width="1.5"/>
<circle cx="521.9" cy="485.4" r="4" fill="#2ca02c" stroke="white" stroke-width="1.5"/>
<circle cx="536.2" cy="479.0" r="4" fill="#2ca02c" stroke="white" stroke-width="1.5"/>
<circle cx="550.6" cy="473.8" r="4" fill="#2ca02c" stroke="white" stroke-width="1.5"/>
<circle cx="564.9" cy="468.6" r="4" fill="#2ca02c" stroke="white" stroke-width="1.5"/>
<circle cx="579.2" cy="464.5" r="4" fill="#2ca02c" stroke="white" stroke-width="1.5"/>
<circle cx="593.6" cy="459.2" r="4" fill="#2ca02c" stroke="white" stroke-width="1.5"/>
<circle cx="607.9" cy="452.9" r="4" fill="#2ca02c" stroke="white" stroke-width="1.5"/>
<circle cx="622.2" cy="448.2" r="4" fill="#2ca02c" stroke="white" stroke-width="1.5"/>
<circle cx="636.5" cy="434.2" r="4" fill="#2ca02c" stroke="white" stroke-width="1.5"/>
<circle cx="650.9" cy="421.0" r="4" fill="#2ca02c" stroke="white" stroke-width="1.5"/>
<circle cx="665.2" cy="414.1" r="4" fill="#2ca02c" stroke="white" stroke-width="1.5"/>
<circle cx="679.5" cy="408.9" r="4" fill="#2ca02c" stroke="white" stroke-width="1.5"/>
<circle cx="693.9" cy="403.2" r="4" fill="#2ca02c" stroke="white" stroke-width="1.5"/>
<circle cx="708.2" cy="398.8" r="4" fill="#2ca02c" stroke="white" stroke-width="1.5"/>
<circle cx="722.5" cy="392.9" r="4" fill="#2ca02c" stroke="white" stroke-width="1.5"/>
<circle cx="736.9" cy="387.3" r="4" fill="#2ca02c" stroke="white" stroke-width="1.5"/>
<circle cx="751.2" cy="381.7" r="4" fill="#2ca02c" stroke="white" stroke-width="1.5"/>
<circle cx="765.5" cy="388.1" r="4" fill="#2ca02c" stroke="white" stroke-width="1.5"/>
<circle cx="779.8" cy="386.4" r="4" fill="#2ca02c" stroke="white" stroke-width="1.5"/>
<circle cx="794.2" cy="377.8" r="4" fill="#2ca02c" stroke="white" stroke-width="1.5"/>
<circle cx="808.5" cy="372.1" r="4" fill="#2ca02c" stroke="white" stroke-width="1.5"/>
<polyline points="92.0,638.0 106.3,633.6 120.7,629.1 135.0,624.5 149.3,619.9 163.7,615.6 178.0,610.9 192.3,606.4 206.6,601.9 221.0,597.3 235.3,592.6 249.6,587.9 264.0,582.7 278.3,576.7 292.6,571.7 307.0,566.3 321.3,560.6 335.6,555.0 349.9,550.4 364.3,545.2 378.6,539.8 392.9,535.7 407.3,530.6 421.6,525.2 435.9,519.8 450.3,515.4 464.6,510.2 478.9,505.6 493.2,501.2 507.6,495.5 521.9,491.2 536.2,485.3 550.6,480.4 564.9,475.3 579.2,471.4 593.6,467.0 607.9,456.3 622.2,439.8 636.5,433.6 650.9,428.3 665.2,423.2 679.5,417.4 693.9,412.2 708.2,407.2 722.5,402.2 736.9,393.5 751.2,389.2 765.5,397.8 779.8,400.1 794.2,389.8 808.5,382.7" fill="none" stroke="#9467bd" stroke-width="3" stroke-linejoin="round" stroke-linecap="round"/>
<circle cx="92.0" cy="638.0" r="4" fill="#9467bd" stroke="white" stroke-width="1.5"/>
<circle cx="106.3" cy="633.6" r="4" fill="#9467bd" stroke="white" stroke-width="1.5"/>
<circle cx="120.7" cy="629.1" r="4" fill="#9467bd" stroke="white" stroke-width="1.5"/>
<circle cx="135.0" cy="624.5" r="4" fill="#9467bd" stroke="white" stroke-width="1.5"/>
<circle cx="149.3" cy="619.9" r="4" fill="#9467bd" stroke="white" stroke-width="1.5"/>
<circle cx="163.7" cy="615.6" r="4" fill="#9467bd" stroke="white" stroke-width="1.5"/>
<circle cx="178.0" cy="610.9" r="4" fill="#9467bd" stroke="white" stroke-width="1.5"/>
<circle cx="192.3" cy="606.4" r="4" fill="#9467bd" stroke="white" stroke-width="1.5"/>
<circle cx="206.6" cy="601.9" r="4" fill="#9467bd" stroke="white" stroke-width="1.5"/>
<circle cx="221.0" cy="597.3" r="4" fill="#9467bd" stroke="white" stroke-width="1.5"/>
<circle cx="235.3" cy="592.6" r="4" fill="#9467bd" stroke="white" stroke-width="1.5"/>
<circle cx="249.6" cy="587.9" r="4" fill="#9467bd" stroke="white" stroke-width="1.5"/>
<circle cx="264.0" cy="582.7" r="4" fill="#9467bd" stroke="white" stroke-width="1.5"/>
<circle cx="278.3" cy="576.7" r="4" fill="#9467bd" stroke="white" stroke-width="1.5"/>
<circle cx="292.6" cy="571.7" r="4" fill="#9467bd" stroke="white" stroke-width="1.5"/>
<circle cx="307.0" cy="566.3" r="4" fill="#9467bd" stroke="white" stroke-width="1.5"/>
<circle cx="321.3" cy="560.6" r="4" fill="#9467bd" stroke="white" stroke-width="1.5"/>
<circle cx="335.6" cy="555.0" r="4" fill="#9467bd" stroke="white" stroke-width="1.5"/>
<circle cx="349.9" cy="550.4" r="4" fill="#9467bd" stroke="white" stroke-width="1.5"/>
<circle cx="364.3" cy="545.2" r="4" fill="#9467bd" stroke="white" stroke-width="1.5"/>
<circle cx="378.6" cy="539.8" r="4" fill="#9467bd" stroke="white" stroke-width="1.5"/>
<circle cx="392.9" cy="535.7" r="4" fill="#9467bd" stroke="white" stroke-width="1.5"/>
<circle cx="407.3" cy="530.6" r="4" fill="#9467bd" stroke="white" stroke-width="1.5"/>
<circle cx="421.6" cy="525.2" r="4" fill="#9467bd" stroke="white" stroke-width="1.5"/>
<circle cx="435.9" cy="519.8" r="4" fill="#9467bd" stroke="white" stroke-width="1.5"/>
<circle cx="450.3" cy="515.4" r="4" fill="#9467bd" stroke="white" stroke-width="1.5"/>
<circle cx="464.6" cy="510.2" r="4" fill="#9467bd" stroke="white" stroke-width="1.5"/>
<circle cx="478.9" cy="505.6" r="4" fill="#9467bd" stroke="white" stroke-width="1.5"/>
<circle cx="493.2" cy="501.2" r="4" fill="#9467bd" stroke="white" stroke-width="1.5"/>
<circle cx="507.6" cy="495.5" r="4" fill="#9467bd" stroke="white" stroke-width="1.5"/>
<circle cx="521.9" cy="491.2" r="4" fill="#9467bd" stroke="white" stroke-width="1.5"/>
<circle cx="536.2" cy="485.3" r="4" fill="#9467bd" stroke="white" stroke-width="1.5"/>
<circle cx="550.6" cy="480.4" r="4" fill="#9467bd" stroke="white" stroke-width="1.5"/>
<circle cx="564.9" cy="475.3" r="4" fill="#9467bd" stroke="white" stroke-width="1.5"/>
<circle cx="579.2" cy="471.4" r="4" fill="#9467bd" stroke="white" stroke-width="1.5"/>
<circle cx="593.6" cy="467.0" r="4" fill="#9467bd" stroke="white" stroke-width="1.5"/>
<circle cx="607.9" cy="456.3" r="4" fill="#9467bd" stroke="white" stroke-width="1.5"/>
<circle cx="622.2" cy="439.8" r="4" fill="#9467bd" stroke="white" stroke-width="1.5"/>
<circle cx="636.5" cy="433.6" r="4" fill="#9467bd" stroke="white" stroke-width="1.5"/>
<circle cx="650.9" cy="428.3" r="4" fill="#9467bd" stroke="white" stroke-width="1.5"/>
<circle cx="665.2" cy="423.2" r="4" fill="#9467bd" stroke="white" stroke-width="1.5"/>
<circle cx="679.5" cy="417.4" r="4" fill="#9467bd" stroke="white" stroke-width="1.5"/>
<circle cx="693.9" cy="412.2" r="4" fill="#9467bd" stroke="white" stroke-width="1.5"/>
<circle cx="708.2" cy="407.2" r="4" fill="#9467bd" stroke="white" stroke-width="1.5"/>
<circle cx="722.5" cy="402.2" r="4" fill="#9467bd" stroke="white" stroke-width="1.5"/>
<circle cx="736.9" cy="393.5" r="4" fill="#9467bd" stroke="white" stroke-width="1.5"/>
<circle cx="751.2" cy="389.2" r="4" fill="#9467bd" stroke="white" stroke-width="1.5"/>
<circle cx="765.5" cy="397.8" r="4" fill="#9467bd" stroke="white" stroke-width="1.5"/>
<circle cx="779.8" cy="400.1" r="4" fill="#9467bd" stroke="white" stroke-width="1.5"/>
<circle cx="794.2" cy="389.8" r="4" fill="#9467bd" stroke="white" stroke-width="1.5"/>
<circle cx="808.5" cy="382.7" r="4" fill="#9467bd" stroke="white" stroke-width="1.5"/>
<polyline points="92.0,638.0 106.3,633.9 120.7,629.3 135.0,625.0 149.3,620.3 163.7,616.0 178.0,611.6 192.3,606.9 206.6,602.5 221.0,598.0 235.3,593.4 249.6,588.7 264.0,583.7 278.3,579.0 292.6,573.9 307.0,568.7 321.3,563.5 335.6,558.4 349.9,552.0 364.3,546.9 378.6,541.5 392.9,536.5 407.3,531.5 421.6,526.0 435.9,520.8 450.3,516.0 464.6,510.8 478.9,506.1 493.2,500.9 507.6,495.4 521.9,490.5 536.2,486.1 550.6,481.2 564.9,475.2 579.2,470.1 593.6,453.0 607.9,444.3 622.2,439.3 636.5,433.7 650.9,428.8 665.2,423.5 679.5,418.3 693.9,412.8 708.2,406.8 722.5,402.2 736.9,398.3 751.2,393.0 765.5,399.0 779.8,400.5 794.2,395.3 808.5,386.8" fill="none" stroke="#d62728" stroke-width="3" stroke-linejoin="round" stroke-linecap="round"/>
<circle cx="92.0" cy="638.0" r="4" fill="#d62728" stroke="white" stroke-width="1.5"/>
<circle cx="106.3" cy="633.9" r="4" fill="#d62728" stroke="white" stroke-width="1.5"/>
<circle cx="120.7" cy="629.3" r="4" fill="#d62728" stroke="white" stroke-width="1.5"/>
<circle cx="135.0" cy="625.0" r="4" fill="#d62728" stroke="white" stroke-width="1.5"/>
<circle cx="149.3" cy="620.3" r="4" fill="#d62728" stroke="white" stroke-width="1.5"/>
<circle cx="163.7" cy="616.0" r="4" fill="#d62728" stroke="white" stroke-width="1.5"/>
<circle cx="178.0" cy="611.6" r="4" fill="#d62728" stroke="white" stroke-width="1.5"/>
<circle cx="192.3" cy="606.9" r="4" fill="#d62728" stroke="white" stroke-width="1.5"/>
<circle cx="206.6" cy="602.5" r="4" fill="#d62728" stroke="white" stroke-width="1.5"/>
<circle cx="221.0" cy="598.0" r="4" fill="#d62728" stroke="white" stroke-width="1.5"/>
<circle cx="235.3" cy="593.4" r="4" fill="#d62728" stroke="white" stroke-width="1.5"/>
<circle cx="249.6" cy="588.7" r="4" fill="#d62728" stroke="white" stroke-width="1.5"/>
<circle cx="264.0" cy="583.7" r="4" fill="#d62728" stroke="white" stroke-width="1.5"/>
<circle cx="278.3" cy="579.0" r="4" fill="#d62728" stroke="white" stroke-width="1.5"/>
<circle cx="292.6" cy="573.9" r="4" fill="#d62728" stroke="white" stroke-width="1.5"/>
<circle cx="307.0" cy="568.7" r="4" fill="#d62728" stroke="white" stroke-width="1.5"/>
<circle cx="321.3" cy="563.5" r="4" fill="#d62728" stroke="white" stroke-width="1.5"/>
<circle cx="335.6" cy="558.4" r="4" fill="#d62728" stroke="white" stroke-width="1.5"/>
<circle cx="349.9" cy="552.0" r="4" fill="#d62728" stroke="white" stroke-width="1.5"/>
<circle cx="364.3" cy="546.9" r="4" fill="#d62728" stroke="white" stroke-width="1.5"/>
<circle cx="378.6" cy="541.5" r="4" fill="#d62728" stroke="white" stroke-width="1.5"/>
<circle cx="392.9" cy="536.5" r="4" fill="#d62728" stroke="white" stroke-width="1.5"/>
<circle cx="407.3" cy="531.5" r="4" fill="#d62728" stroke="white" stroke-width="1.5"/>
<circle cx="421.6" cy="526.0" r="4" fill="#d62728" stroke="white" stroke-width="1.5"/>
<circle cx="435.9" cy="520.8" r="4" fill="#d62728" stroke="white" stroke-width="1.5"/>
<circle cx="450.3" cy="516.0" r="4" fill="#d62728" stroke="white" stroke-width="1.5"/>
<circle cx="464.6" cy="510.8" r="4" fill="#d62728" stroke="white" stroke-width="1.5"/>
<circle cx="478.9" cy="506.1" r="4" fill="#d62728" stroke="white" stroke-width="1.5"/>
<circle cx="493.2" cy="500.9" r="4" fill="#d62728" stroke="white" stroke-width="1.5"/>
<circle cx="507.6" cy="495.4" r="4" fill="#d62728" stroke="white" stroke-width="1.5"/>
<circle cx="521.9" cy="490.5" r="4" fill="#d62728" stroke="white" stroke-width="1.5"/>
<circle cx="536.2" cy="486.1" r="4" fill="#d62728" stroke="white" stroke-width="1.5"/>
<circle cx="550.6" cy="481.2" r="4" fill="#d62728" stroke="white" stroke-width="1.5"/>
<circle cx="564.9" cy="475.2" r="4" fill="#d62728" stroke="white" stroke-width="1.5"/>
<circle cx="579.2" cy="470.1" r="4" fill="#d62728" stroke="white" stroke-width="1.5"/>
<circle cx="593.6" cy="453.0" r="4" fill="#d62728" stroke="white" stroke-width="1.5"/>
<circle cx="607.9" cy="444.3" r="4" fill="#d62728" stroke="white" stroke-width="1.5"/>
<circle cx="622.2" cy="439.3" r="4" fill="#d62728" stroke="white" stroke-width="1.5"/>
<circle cx="636.5" cy="433.7" r="4" fill="#d62728" stroke="white" stroke-width="1.5"/>
<circle cx="650.9" cy="428.8" r="4" fill="#d62728" stroke="white" stroke-width="1.5"/>
<circle cx="665.2" cy="423.5" r="4" fill="#d62728" stroke="white" stroke-width="1.5"/>
<circle cx="679.5" cy="418.3" r="4" fill="#d62728" stroke="white" stroke-width="1.5"/>
<circle cx="693.9" cy="412.8" r="4" fill="#d62728" stroke="white" stroke-width="1.5"/>
<circle cx="708.2" cy="406.8" r="4" fill="#d62728" stroke="white" stroke-width="1.5"/>
<circle cx="722.5" cy="402.2" r="4" fill="#d62728" stroke="white" stroke-width="1.5"/>
<circle cx="736.9" cy="398.3" r="4" fill="#d62728" stroke="white" stroke-width="1.5"/>
<circle cx="751.2" cy="393.0" r="4" fill="#d62728" stroke="white" stroke-width="1.5"/>
<circle cx="765.5" cy="399.0" r="4" fill="#d62728" stroke="white" stroke-width="1.5"/>
<circle cx="779.8" cy="400.5" r="4" fill="#d62728" stroke="white" stroke-width="1.5"/>
<circle cx="794.2" cy="395.3" r="4" fill="#d62728" stroke="white" stroke-width="1.5"/>
<circle cx="808.5" cy="386.8" r="4" fill="#d62728" stroke="white" stroke-width="1.5"/>
<line x1="864" y1="76" x2="896" y2="76" stroke="#7f7f7f" stroke-width="4" stroke-linecap="round"/>
<text x="908" y="81" class="small">Recursive add1</text>
<line x1="864" y1="110" x2="896" y2="110" stroke="#1f77b4" stroke-width="4" stroke-linecap="round"/>
<text x="908" y="115" class="small">Loopified add1, copy dead buffers, vectorization off</text>
<line x1="864" y1="144" x2="896" y2="144" stroke="#2ca02c" stroke-width="4" stroke-linecap="round"/>
<text x="908" y="149" class="small">Loopified add1, dead-buffer indirections, vectorization off</text>
<line x1="864" y1="178" x2="896" y2="178" stroke="#9467bd" stroke-width="4" stroke-linecap="round"/>
<text x="908" y="183" class="small">Loopified add1, dead-buffer indirections, auto-vectorized</text>
<line x1="864" y1="212" x2="896" y2="212" stroke="#d62728" stroke-width="4" stroke-linecap="round"/>
<text x="908" y="217" class="small">Loopified add1, dead-buffer indirections, manual AVX2 vectorized</text>
<text x="864" y="620" class="small">Points: 51</text>
<text x="864" y="642" class="small">Max input: 5M</text>
<text x="864" y="664" class="small">Build: AVX2 manual SIMD</text>
<text x="864" y="686" class="small">X scale: linear</text>
<text x="864" y="708" class="small">Chunk size: executable default</text>
</svg>